<svg preserveAspectRatio="none" width="100%" height="100%" overflow="visible" style="display: block;" viewBox="0 0 80 80" fill="none" xmlns="http://www.w3.org/2000/svg">
<g id="Frame 1321318102" clip-path="url(#clip0_2002_1328)">
<g id="Group 1321316320">
<circle id="Ellipse 1742" cx="40" cy="40" r="40" fill="var(--fill-0, #F3F4F7)"/>
<g id="Filled">
<path id="Vector" d="M28.5272 62.5C25.9848 62.5 23.9238 60.4853 23.9238 58L23.9238 22C23.9238 19.5147 25.9848 17.5 28.5272 17.5L49.2425 17.5C54.3272 17.5 58.4493 21.5294 58.4493 26.5L58.4493 53.5C58.4493 58.4706 54.3272 62.5 49.2425 62.5L28.5272 62.5Z" fill="var(--fill-0, #00E163)"/>
<path id="Vector_2" d="M36.1538 25.0231C36.1538 24.149 36.8626 23.4404 37.737 23.4404H41.6949C42.5693 23.4404 43.2781 24.149 43.2781 25.0231V28.9797C43.2781 29.8538 42.5693 30.5623 41.6949 30.5623H37.737C36.8626 30.5623 36.1538 29.8538 36.1538 28.9797V25.0231Z" fill="var(--fill-0, #101116)"/>
<path id="Vector_3" d="M27.7143 62.5C24.5584 62.5 22 60.4853 22 58L22 22C22 19.5147 24.5584 17.5 27.7143 17.5L32 17.5L32 62.5L27.7143 62.5Z" fill="var(--fill-0, #101116)"/>
</g>
<rect id="Rectangle 39591561" x="68.23" y="67.4023" width="7.04712" height="10.3036" rx="3.52356" transform="rotate(135.93 68.23 67.4023)" fill="var(--fill-0, #00E163)"/>
<circle id="Ellipse 1742_2" cx="40" cy="40" r="40" fill="var(--fill-0, white)"/>
</g>
<path id="Vector_4" d="M40 37.5197V62M40 37.5197C40 33.4873 40 31.4719 40.7993 29.9317C41.5024 28.5769 42.6234 27.4751 44.0033 26.7848C45.5719 26 47.6258 26 51.7329 26H58.0884C59.4574 26 60.1424 26 60.6653 26.2616C61.1253 26.4917 61.4983 26.8586 61.7326 27.3102C61.9991 27.8236 62 28.4961 62 29.8403V50.9606C62 52.3047 61.9991 52.9758 61.7326 53.4892C61.4983 53.9408 61.1261 54.3089 60.6661 54.539C60.1437 54.8004 59.4602 54.8004 58.0939 54.8004H51.1695C48.8736 54.8004 47.7236 54.8004 46.6816 55.1111C45.7592 55.3861 44.9027 55.8365 44.158 56.4375C43.3167 57.1164 42.6792 58.0542 41.4057 59.9297L40 62M40 37.5197C40 33.4873 39.9996 31.4719 39.2003 29.9317C38.4972 28.5769 37.3753 27.4751 35.9955 26.7848C34.4268 26 32.3728 26 28.2657 26H21.9102C20.5411 26 19.8573 26 19.3344 26.2616C18.8745 26.4917 18.5008 26.8586 18.2664 27.3102C18 27.8236 18 28.4961 18 29.8403V50.9606C18 52.3047 18 52.9758 18.2664 53.4892C18.5008 53.9408 18.8745 54.3089 19.3344 54.539C19.8568 54.8004 20.5398 54.8004 21.9061 54.8004H28.8307C31.1265 54.8004 32.2741 54.8004 33.3161 55.1111C34.2386 55.3861 35.0992 55.8365 35.844 56.4375C36.6818 57.1136 37.3153 58.0466 38.5785 59.907L40 62" stroke="var(--stroke-0, #101116)" stroke-width="4" stroke-linecap="round" stroke-linejoin="round"/>
</g>
<defs>
<clipPath id="clip0_2002_1328">
<rect width="80" height="80" fill="white"/>
</clipPath>
</defs>
</svg>
