<svg preserveAspectRatio="none" width="100%" height="100%" overflow="visible" style="display: block;" viewBox="0 0 40 40" fill="none" xmlns="http://www.w3.org/2000/svg">
<g id="Frame 1321318102" clip-path="url(#clip0_2002_1370)">
<g id="Group 1321316320">
<circle id="Ellipse 1742" cx="20" cy="20" r="20" fill="var(--fill-0, #F3F4F7)"/>
<g id="Filled">
<path id="Vector" d="M14.2636 31.25C12.9924 31.25 11.9619 30.2426 11.9619 29L11.9619 11C11.9619 9.75736 12.9924 8.75 14.2636 8.75L24.6212 8.75C27.1636 8.75 29.2246 10.7647 29.2246 13.25L29.2246 26.75C29.2246 29.2353 27.1636 31.25 24.6212 31.25L14.2636 31.25Z" fill="var(--fill-0, #00E163)"/>
<path id="Vector_2" d="M18.0769 12.5116C18.0769 12.0746 18.4313 11.7203 18.8684 11.7203H20.8474C21.2846 11.7203 21.639 12.0746 21.639 12.5116V14.4899C21.639 14.9269 21.2846 15.2812 20.8474 15.2812H18.8684C18.4313 15.2812 18.0769 14.9269 18.0769 14.4899V12.5116Z" fill="var(--fill-0, #101116)"/>
<path id="Vector_3" d="M13.8571 31.25C12.2792 31.25 11 30.2426 11 29L11 11C11 9.75736 12.2792 8.75 13.8571 8.75L16 8.75L16 31.25L13.8571 31.25Z" fill="var(--fill-0, #101116)"/>
</g>
<rect id="Rectangle 39591561" x="34.1149" y="33.7012" width="3.52356" height="5.15181" rx="1.76178" transform="rotate(135.93 34.1149 33.7012)" fill="var(--fill-0, #00E163)"/>
<circle id="Ellipse 1742_2" cx="20" cy="20" r="20" fill="var(--fill-0, #08152C)"/>
</g>
<g id="Group 1321316363">
<path id="Vector_4" d="M28.5 30L28.5 23M28.5 23L25.5 25.8M28.5 23L31.5 25.8" stroke="var(--stroke-0, #101116)" stroke-linecap="round" stroke-linejoin="round"/>
</g>
<path id="C" d="M25.3231 16.7473C24.9538 14.3817 23.0462 12.9328 20.4615 12.9328C16.9846 12.9328 14.7077 15.5054 14.7077 20C14.7077 24.6129 17.0154 27.0672 20.4308 27.0672C22.9846 27.0672 24.8615 25.707 25.3231 23.4005L30 23.4301C29.4769 27.3925 26.0308 31 20.3692 31C14.4 31 10 26.9785 10 20C10 13.0215 14.4923 9 20.3692 9C25.5077 9 29.3846 11.8387 30 16.7473H25.3231Z" fill="var(--fill-0, white)"/>
</g>
<defs>
<clipPath id="clip0_2002_1370">
<rect width="40" height="40" fill="white"/>
</clipPath>
</defs>
</svg>
