<svg preserveAspectRatio="none" width="100%" height="100%" overflow="visible" style="display: block;" viewBox="0 0 34 49" fill="none" xmlns="http://www.w3.org/2000/svg">
<g id="Group 1321316365">
<path id="Vector" d="M2 17C2 8.71572 8.71572 2 17 2C25.2842 2 32.0005 8.71572 32.0005 17C32.0005 20.0362 31.0984 22.8618 29.5476 25.2232C27.1628 28.8545 25.9694 30.669 25.8147 30.9402C24.4378 33.3525 24.6927 32.5017 24.5195 35.2739C24.5 35.5855 24.5 36.0572 24.5 37C24.5 38.3807 23.3807 39.5 22 39.5L12 39.5C10.6193 39.5 9.49999 38.3807 9.49999 37C9.49999 36.0572 9.49994 35.5855 9.48046 35.2739C9.30717 32.5017 9.5607 33.3525 8.18379 30.9402C8.02901 30.669 6.83768 28.8545 4.45291 25.2232C2.90211 22.8618 2 20.0362 2 17Z" fill="var(--fill-0, #0046FF)" stroke="var(--stroke-0, #0046FF)" stroke-width="4" stroke-linecap="round" stroke-linejoin="round"/>
<path id="Vector_2" d="M9.5 47H17H24.5" stroke="var(--stroke-0, #101116)" stroke-width="4" stroke-linecap="round" stroke-linejoin="round"/>
</g>
</svg>
