<svg preserveAspectRatio="none" width="100%" height="100%" overflow="visible" style="display: block;" viewBox="0 0 43 35" fill="none" xmlns="http://www.w3.org/2000/svg">
<g id="Group 1321316364">
<path id="Vector" d="M39.3117 0C41.0286 0 42.4203 1.39177 42.4203 3.1086V31.5164C42.4203 33.2332 41.0286 34.625 39.3117 34.625C37.5949 34.625 36.2031 33.2332 36.2031 31.5164V3.1086C36.2031 1.39177 37.5949 0 39.3117 0Z" fill="var(--fill-0, #101116)"/>
<path id="Vector_2" d="M7.36051 32.4978C6.93456 33.7686 5.74425 34.625 4.40403 34.625C2.2535 34.625 0.748548 32.4994 1.46297 30.471L10.9233 3.61103C11.6854 1.44737 13.7297 0 16.0236 0C18.3151 0 20.3578 1.44434 21.1217 3.60476L30.6213 30.471C31.3382 32.4982 29.8344 34.625 27.6841 34.625C26.345 34.625 25.1557 33.7693 24.7302 32.4997L24.0078 30.3447C23.1507 27.7877 20.7556 26.0644 18.0587 26.0644H14.0313C11.3345 26.0644 8.93933 27.7877 8.08223 30.3447L7.36051 32.4978ZM12.7328 16.4484C11.9749 18.7066 13.6551 21.0428 16.0372 21.0428C18.4237 21.0428 20.1044 18.6984 19.3381 16.4382L16.2106 7.21369C16.1831 7.1326 16.107 7.07804 16.0213 7.07804C15.9355 7.07804 15.8592 7.13288 15.8319 7.21428L12.7328 16.4484Z" fill="var(--fill-0, #101116)"/>
</g>
</svg>
