<svg preserveAspectRatio="none" width="100%" height="100%" overflow="visible" style="display: block;" viewBox="0 0 40 40" fill="none" xmlns="http://www.w3.org/2000/svg">
<g id="Group 1321316320">
<circle id="Ellipse 1742" cx="20" cy="20" r="20" fill="var(--fill-0, #F3F4F7)"/>
<g id="Filled">
<path id="Vector" d="M14.2636 31.25C12.9924 31.25 11.9619 30.2426 11.9619 29L11.9619 11C11.9619 9.75736 12.9924 8.75 14.2636 8.75L24.6212 8.75C27.1636 8.75 29.2246 10.7647 29.2246 13.25L29.2246 26.75C29.2246 29.2353 27.1636 31.25 24.6212 31.25L14.2636 31.25Z" fill="var(--fill-0, #00E163)"/>
<path id="Vector_2" d="M18.0769 12.5116C18.0769 12.0746 18.4313 11.7203 18.8684 11.7203H20.8474C21.2846 11.7203 21.639 12.0746 21.639 12.5116V14.4899C21.639 14.9269 21.2846 15.2812 20.8474 15.2812H18.8684C18.4313 15.2812 18.0769 14.9269 18.0769 14.4899V12.5116Z" fill="var(--fill-0, #101116)"/>
<path id="Vector_3" d="M13.8571 31.25C12.2792 31.25 11 30.2426 11 29L11 11C11 9.75736 12.2792 8.75 13.8571 8.75L16 8.75L16 31.25L13.8571 31.25Z" fill="var(--fill-0, #101116)"/>
</g>
<rect id="Rectangle 39591560" x="38.0109" y="31.6724" width="1.96687" height="5.86339" rx="0.983434" transform="rotate(119.079 38.0109 31.6724)" fill="var(--fill-0, #00E163)"/>
<rect id="Rectangle 39591561" x="34.1149" y="33.7014" width="3.52356" height="5.15181" rx="1.76178" transform="rotate(135.93 34.1149 33.7014)" fill="var(--fill-0, #00E163)"/>
<circle id="Ellipse 1742_2" cx="20" cy="20" r="20" fill="var(--fill-0, white)"/>
<rect id="Rectangle 39591559" x="36.3425" y="6" width="2.93169" height="5.86339" rx="1.46585" transform="rotate(47.7843 36.3425 6)" fill="var(--fill-0, #0077FF)"/>
<rect id="Rectangle 39591562" y="9.36077" width="3.99793" height="9.1173" rx="1.99897" transform="rotate(-57.2064 0 9.36077)" fill="var(--fill-0, #00E163)"/>
<rect id="Rectangle 39591565" x="9" y="5.19842" width="2.92155" height="4.74182" rx="1.46077" transform="rotate(-24.2174 9 5.19842)" fill="var(--fill-0, #0077FF)"/>
<rect id="Rectangle 39591564" x="2.30061" y="31.732" width="2.49638" height="4.99275" rx="1.24819" transform="rotate(-121.399 2.30061 31.732)" fill="var(--fill-0, #13A786)"/>
<rect id="Rectangle 39591560_2" x="38.0109" y="31.6724" width="1.96687" height="5.86339" rx="0.983434" transform="rotate(119.079 38.0109 31.6724)" fill="var(--fill-0, #00E163)"/>
<rect id="Rectangle 39591561_2" x="32.0548" y="35.1217" width="3.52356" height="6.75817" rx="1.76178" transform="rotate(154.935 32.0548 35.1217)" fill="var(--fill-0, #1CBA97)"/>
</g>
</svg>
