<svg preserveAspectRatio="none" width="100%" height="100%" overflow="visible" style="display: block;" viewBox="0 0 18 18" fill="none" xmlns="http://www.w3.org/2000/svg">
<g id="i_&#236;&#167;&#129;&#236;&#151;&#133;">
<path id="Vector" d="M6.33333 5.75H5.13346C4.38673 5.75 4.01308 5.75 3.72786 5.89987C3.47698 6.03169 3.27316 6.24189 3.14532 6.50061C3 6.79474 3 7.18006 3 7.95013V11.8001C3 12.5702 3 12.955 3.14532 13.2492C3.27316 13.5079 3.47698 13.7185 3.72786 13.8503C4.0128 14 4.386 14 5.13127 14H12.8687C13.614 14 13.9867 14 14.2716 13.8503C14.5225 13.7185 14.727 13.5079 14.8548 13.2492C15 12.9553 15 12.571 15 11.8025V7.94788C15 7.17931 15 6.79445 14.8548 6.50061C14.727 6.24189 14.5225 6.03169 14.2716 5.89987C13.9864 5.75 13.6135 5.75 12.8668 5.75H11.6667M6.33333 5.75H11.6667M6.33333 5.75C6.33333 4.23122 7.52724 3 9 3C10.4728 3 11.6667 4.23122 11.6667 5.75" stroke="var(--stroke-0, #101116)" stroke-linecap="round" stroke-linejoin="round"/>
</g>
</svg>
