<svg preserveAspectRatio="none" width="100%" height="100%" overflow="visible" style="display: block;" viewBox="0 0 80 80" fill="none" xmlns="http://www.w3.org/2000/svg">
<g id="Group 1321316320">
<circle id="Ellipse 1742" cx="40" cy="40" r="40" fill="var(--fill-0, #F3F4F7)"/>
<g id="Filled">
<path id="Vector" d="M28.5272 62.5C25.9848 62.5 23.9238 60.4853 23.9238 58L23.9238 22C23.9238 19.5147 25.9848 17.5 28.5272 17.5L49.2425 17.5C54.3272 17.5 58.4493 21.5294 58.4493 26.5L58.4493 53.5C58.4493 58.4706 54.3272 62.5 49.2425 62.5L28.5272 62.5Z" fill="var(--fill-0, #00E163)"/>
<path id="Vector_2" d="M36.1533 25.0241C36.1533 24.15 36.8621 23.4414 37.7365 23.4414H41.6944C42.5688 23.4414 43.2776 24.15 43.2776 25.0241V28.9807C43.2776 29.8547 42.5688 30.5633 41.6944 30.5633H37.7365C36.8621 30.5633 36.1533 29.8547 36.1533 28.9807V25.0241Z" fill="var(--fill-0, #101116)"/>
<path id="Vector_3" d="M27.7143 62.5C24.5584 62.5 22 60.4853 22 58L22 22C22 19.5147 24.5584 17.5 27.7143 17.5L32 17.5L32 62.5L27.7143 62.5Z" fill="var(--fill-0, #101116)"/>
</g>
<rect id="Rectangle 39591560" x="76.0215" y="63.3438" width="3.93373" height="11.7268" rx="1.96687" transform="rotate(119.079 76.0215 63.3438)" fill="var(--fill-0, #00E163)"/>
<rect id="Rectangle 39591561" x="68.2295" y="67.4023" width="7.04712" height="10.3036" rx="3.52356" transform="rotate(135.93 68.2295 67.4023)" fill="var(--fill-0, #00E163)"/>
<circle id="Ellipse 1742_2" cx="40" cy="40" r="40" fill="var(--fill-0, white)"/>
<rect id="Rectangle 39591559" x="72.6855" y="12" width="5.86339" height="11.7268" rx="2.93169" transform="rotate(47.7843 72.6855 12)" fill="var(--fill-0, #0077FF)"/>
<rect id="Rectangle 39591562" y="18.7207" width="7.99587" height="18.2346" rx="3.99793" transform="rotate(-57.2064 0 18.7207)" fill="var(--fill-0, #00E163)"/>
<rect id="Rectangle 39591565" x="18" y="10.3965" width="5.8431" height="9.48364" rx="2.92155" transform="rotate(-24.2174 18 10.3965)" fill="var(--fill-0, #0077FF)"/>
<rect id="Rectangle 39591564" x="4.60156" y="63.4648" width="4.99275" height="9.9855" rx="2.49638" transform="rotate(-121.399 4.60156 63.4648)" fill="var(--fill-0, #13A786)"/>
<rect id="Rectangle 39591560_2" x="76.0215" y="63.3438" width="3.93373" height="11.7268" rx="1.96687" transform="rotate(119.079 76.0215 63.3438)" fill="var(--fill-0, #00E163)"/>
<rect id="Rectangle 39591561_2" x="64.1094" y="70.2441" width="7.04712" height="13.5163" rx="3.52356" transform="rotate(154.935 64.1094 70.2441)" fill="var(--fill-0, #1CBA97)"/>
</g>
</svg>
