<svg preserveAspectRatio="none" width="100%" height="100%" overflow="visible" style="display: block;" viewBox="0 0 18 18" fill="none" xmlns="http://www.w3.org/2000/svg">
<g id="i_&#236;&#156;&#132;&#236;&#185;&#152;">
<g id="Vector">
<path d="M4 7.68124C4 10.962 7.03179 13.6751 8.37373 14.7153C8.56579 14.8642 8.66296 14.9395 8.80625 14.9777C8.91782 15.0074 9.08203 15.0074 9.1936 14.9777C9.33715 14.9394 9.43365 14.8648 9.62643 14.7154C10.9684 13.6752 14 10.9623 14 7.68154C14 6.43995 13.4732 5.24908 12.5356 4.37115C11.5979 3.49322 10.3262 3 9.00009 3C7.674 3 6.40216 3.49329 5.46447 4.37122C4.52679 5.24915 4 6.43965 4 7.68124Z" stroke="var(--stroke-0, #101116)" stroke-linecap="round" stroke-linejoin="round"/>
<path d="M7.57145 7.0572C7.57145 7.80411 8.21105 8.4096 9.00003 8.4096C9.78901 8.4096 10.4286 7.80411 10.4286 7.0572C10.4286 6.31029 9.78901 5.7048 9.00003 5.7048C8.21105 5.7048 7.57145 6.31029 7.57145 7.0572Z" stroke="var(--stroke-0, #101116)" stroke-linecap="round" stroke-linejoin="round"/>
</g>
</g>
</svg>
