<svg preserveAspectRatio="none" width="100%" height="100%" overflow="visible" style="display: block;" viewBox="0 0 18 15" fill="none" xmlns="http://www.w3.org/2000/svg">
<g id="Group 1321316364">
<path id="Vector" d="M16.5 0C17.3284 0 18 0.671573 18 1.5V13.5C18 14.3284 17.3284 15 16.5 15C15.6716 15 15 14.3284 15 13.5V1.5C15 0.671573 15.6716 0 16.5 0Z" fill="var(--fill-0, white)"/>
<path id="Vector_2" d="M2.9725 14.1083C2.80619 14.6389 2.31455 15 1.7585 15C0.892034 15 0.279054 14.1527 0.550109 13.3298L4.45523 1.47304C4.74475 0.593982 5.56576 0 6.49126 0C7.41585 0 8.23626 0.592821 8.52652 1.47067L12.4477 13.3297C12.7197 14.1523 12.1071 15 11.2408 15C10.6851 15 10.1939 14.6392 10.0277 14.109L9.72578 13.1457C9.37994 12.0424 8.35761 11.2914 7.20132 11.2914H5.79868C4.64239 11.2914 3.62006 12.0424 3.27422 13.1457L2.9725 14.1083ZM5.12148 7.24265C4.83001 8.17134 5.52365 9.11602 6.497 9.11602C7.47211 9.11602 8.16595 8.16816 7.87126 7.23865L6.56597 3.12162C6.55553 3.08868 6.52496 3.0663 6.4904 3.0663C6.45576 3.0663 6.42513 3.08879 6.41476 3.12184L5.12148 7.24265Z" fill="var(--fill-0, white)"/>
</g>
</svg>
