<svg preserveAspectRatio="none" width="100%" height="100%" overflow="visible" style="display: block;" viewBox="0 0 54 44" fill="none" xmlns="http://www.w3.org/2000/svg">
<g id="Group 1321316363">
<g id="Filled">
<path id="Vector" d="M5.33333 0C2.38781 0 0 2.38781 0 5.33333V29.3333C0 35.2244 4.77563 40 10.6667 40H29.2678C30.0893 40 30.6139 39.1014 30.3053 38.3401C29.6785 36.7942 29.3333 35.1041 29.3333 33.3333C29.3333 25.9695 35.3029 20 42.6667 20C45.8795 20 48.8269 21.1363 51.1289 23.029C51.9203 23.6797 53.3333 23.1612 53.3333 22.1365V5.33333C53.3333 2.38781 50.9455 0 48 0H5.33333Z" fill="var(--fill-0, #0046FF)"/>
<circle id="Vector_2" cx="42.6667" cy="33.3346" r="10.6667" fill="var(--fill-0, #C1E0FC)"/>
<path id="Vector_3" d="M6.13574 8.8013C6.13574 7.6231 7.09087 6.66797 8.26907 6.66797H45.3357C46.5139 6.66797 47.4691 7.6231 47.4691 8.8013C47.4691 9.97951 46.5139 10.9346 45.3357 10.9346H8.26908C7.09087 10.9346 6.13574 9.97951 6.13574 8.8013Z" fill="var(--fill-0, #101116)"/>
</g>
<path id="Vector_4" d="M43 26V40M43 40L49 34.4M43 40L37 34.4" stroke="var(--stroke-0, #101116)" stroke-width="2" stroke-linecap="round" stroke-linejoin="round"/>
</g>
</svg>
