<svg preserveAspectRatio="none" width="100%" height="100%" overflow="visible" style="display: block;" viewBox="0 0 51 51" fill="none" xmlns="http://www.w3.org/2000/svg">
<path id="Vector" d="M13.526 46.3048C17.05 48.3372 21.1387 49.5 25.499 49.5C38.7539 49.5 49.5 38.7549 49.5 25.5001C49.5 12.2452 38.7548 1.5 25.5 1.5C12.2452 1.5 1.5 12.2452 1.5 25.5001C1.5 29.8604 2.66278 33.9491 4.69518 37.4731L4.70305 37.4868C4.89861 37.8258 4.99722 37.9968 5.04189 38.1584C5.08402 38.3108 5.09578 38.4478 5.085 38.6056C5.0734 38.7751 5.01627 38.9508 4.89915 39.3022L2.84896 45.4528L2.84638 45.4609C2.41381 46.7586 2.19752 47.4074 2.35169 47.8398C2.48611 48.2167 2.78449 48.5143 3.16146 48.6487C3.59284 48.8025 4.23879 48.5872 5.53079 48.1565L5.54688 48.1506L11.6975 46.1004C12.0477 45.9837 12.2257 45.9245 12.3949 45.9129C12.5527 45.9021 12.6887 45.9163 12.8411 45.9585C13.0032 46.0032 13.1742 46.1019 13.515 46.2985L13.526 46.3048Z" fill="var(--fill-0, #C1E0FC)" stroke="var(--stroke-0, #101116)" stroke-width="3" stroke-linecap="round" stroke-linejoin="round"/>
</svg>
