<svg preserveAspectRatio="none" width="100%" height="100%" overflow="visible" style="display: block;" viewBox="0 0 80 80" fill="none" xmlns="http://www.w3.org/2000/svg">
<g id="i_&#235;&#182;&#132;&#236;&#132;&#157;">
<circle id="Ellipse 1742" cx="40" cy="40" r="40" fill="var(--fill-0, white)"/>
<path id="Vector" d="M17.5 46.3339V50.8933C17.5 53.7309 17.5 55.1487 18.045 56.2326C18.5243 57.1859 19.2887 57.9626 20.2295 58.4483C21.298 59 22.6974 59 25.4922 59H62.5M17.5 46.3339V21M17.5 46.3339L27.1334 38.199L27.1414 38.1925C28.884 36.7209 29.7571 35.9836 30.7037 35.6842C31.822 35.3304 33.0266 35.3864 34.1087 35.8413C35.0261 36.2269 35.8304 37.042 37.4392 38.6722L37.4553 38.6886C39.0891 40.3441 39.9081 41.1741 40.8402 41.5589C41.9431 42.0142 43.1711 42.0534 44.3015 41.6734C45.2599 41.3513 46.1352 40.5765 47.8854 39.0246L62.4994 26.0667" stroke="var(--stroke-0, #101116)" stroke-width="4" stroke-linecap="round" stroke-linejoin="round"/>
</g>
</svg>
