<svg preserveAspectRatio="none" width="100%" height="100%" overflow="visible" style="display: block;" viewBox="0 0 30 30" fill="none" xmlns="http://www.w3.org/2000/svg">
<g id="Group 1321316320">
<circle id="Ellipse 1742" cx="15" cy="15" r="15" fill="var(--fill-0, #F3F4F7)"/>
<g id="Filled">
<path id="Vector" d="M10.698 23.4375C9.74456 23.4375 8.97168 22.682 8.97168 21.75L8.97168 8.25C8.97168 7.31802 9.74456 6.5625 10.698 6.5625L18.4662 6.5625C20.373 6.5625 21.9187 8.07354 21.9187 9.9375L21.9187 20.0625C21.9187 21.9265 20.373 23.4375 18.4662 23.4375L10.698 23.4375Z" fill="var(--fill-0, #00E163)"/>
<path id="Vector_2" d="M13.5576 9.38451C13.5576 9.05673 13.8234 8.79102 14.1513 8.79102H15.6355C15.9634 8.79102 16.2292 9.05673 16.2292 9.38451V10.8682C16.2292 11.196 15.9634 11.4617 15.6355 11.4617H14.1513C13.8234 11.4617 13.5576 11.196 13.5576 10.8682V9.38451Z" fill="var(--fill-0, #101116)"/>
<path id="Vector_3" d="M10.3929 23.4375C9.20939 23.4375 8.25 22.682 8.25 21.75L8.25 8.25C8.25 7.31802 9.20939 6.5625 10.3929 6.5625L12 6.5625L12 23.4375L10.3929 23.4375Z" fill="var(--fill-0, #101116)"/>
</g>
<rect id="Rectangle 39591561" x="25.5859" y="25.2754" width="2.64267" height="3.86386" rx="1.32134" transform="rotate(135.93 25.5859 25.2754)" fill="var(--fill-0, #00E163)"/>
<circle id="Ellipse 1742_2" cx="15" cy="15" r="15" fill="var(--fill-0, #0046FF)"/>
</g>
</svg>
