<svg preserveAspectRatio="none" width="100%" height="100%" overflow="visible" style="display: block;" viewBox="0 0 40 40" fill="none" xmlns="http://www.w3.org/2000/svg">
<g id="Frame 1321318102" clip-path="url(#clip0_2004_1596)">
<g id="Group 1321316320">
<circle id="Ellipse 1742" cx="20" cy="20" r="20" fill="var(--fill-0, #F3F4F7)"/>
<g id="Filled">
<path id="Vector" d="M14.2636 31.25C12.9924 31.25 11.9619 30.2426 11.9619 29L11.9619 11C11.9619 9.75736 12.9924 8.75 14.2636 8.75L24.6212 8.75C27.1636 8.75 29.2246 10.7647 29.2246 13.25L29.2246 26.75C29.2246 29.2353 27.1636 31.25 24.6212 31.25L14.2636 31.25Z" fill="var(--fill-0, #00E163)"/>
<path id="Vector_2" d="M18.0769 12.512C18.0769 12.075 18.4313 11.7207 18.8685 11.7207H20.8475C21.2846 11.7207 21.6391 12.075 21.6391 12.512V14.4903C21.6391 14.9274 21.2846 15.2817 20.8475 15.2817H18.8685C18.4313 15.2817 18.0769 14.9274 18.0769 14.4903V12.512Z" fill="var(--fill-0, #101116)"/>
<path id="Vector_3" d="M13.8571 31.25C12.2792 31.25 11 30.2426 11 29L11 11C11 9.75736 12.2792 8.75 13.8571 8.75L16 8.75L16 31.25L13.8571 31.25Z" fill="var(--fill-0, #101116)"/>
</g>
<rect id="Rectangle 39591561" x="34.115" y="33.7012" width="3.52356" height="5.15181" rx="1.76178" transform="rotate(135.93 34.115 33.7012)" fill="var(--fill-0, #00E163)"/>
<circle id="Ellipse 1742_2" cx="20" cy="20" r="20" fill="var(--fill-0, white)"/>
</g>
<path id="Vector_4" d="M10.0001 16.3333H29.5556M10.0001 16.3333V27.0891C10.0001 28.4581 10.0001 29.1423 10.2665 29.6652C10.5008 30.1251 10.8745 30.4995 11.3345 30.7338C11.8569 31 12.541 31 13.9074 31H25.6483C27.0146 31 27.6978 31 28.2202 30.7338C28.6802 30.4995 29.0551 30.1251 29.2894 29.6652C29.5556 29.1428 29.5556 28.4596 29.5556 27.0933V16.3333M10.0001 16.3333V15.3558C10.0001 13.9868 10.0001 13.3018 10.2665 12.7789C10.5008 12.3189 10.8745 11.9452 11.3345 11.7109C11.8574 11.4444 12.5424 11.4444 13.9114 11.4444H14.8889M29.5556 16.3333V15.3518C29.5556 13.9854 29.5556 13.3012 29.2894 12.7789C29.0551 12.3189 28.6802 11.9452 28.2202 11.7109C27.6973 11.4444 27.0138 11.4444 25.6447 11.4444H24.6667M14.8889 11.4444H24.6667M14.8889 11.4444V9M24.6667 11.4444V9M23.4445 21.2222L18.5556 26.1111L16.1112 23.6667" stroke="var(--stroke-0, #101116)" stroke-width="2" stroke-linecap="round" stroke-linejoin="round"/>
</g>
<defs>
<clipPath id="clip0_2004_1596">
<rect width="40" height="40" fill="white"/>
</clipPath>
</defs>
</svg>
