<svg width="24" height="24" viewBox="0 0 24 24" fill="none" xmlns="http://www.w3.org/2000/svg">
<path d="M3.93397 13.7788C5.7134 15.5478 8.8167 18 12.3474 18C15.878 18 18.9807 15.5478 20.7601 13.7788C21.2294 13.3123 21.4649 13.0782 21.6143 12.6201C21.7209 12.2933 21.7209 11.7067 21.6143 11.3799C21.4649 10.9218 21.2295 10.6877 20.7601 10.2211C18.9807 8.45208 15.878 6 12.3474 6C8.8167 6 5.7134 8.45208 3.93397 10.2211C3.46431 10.688 3.22945 10.9217 3.07996 11.3799C2.97335 11.7067 2.97335 12.2933 3.07996 12.6201C3.22945 13.0784 3.4643 13.3119 3.93397 13.7788Z" stroke="#737684" stroke-width="1.5" stroke-linecap="round" stroke-linejoin="round"/>
<circle cx="12" cy="12" r="3" stroke="#737684" stroke-width="1.5"/>
<circle cx="12" cy="12" r="1.5" fill="#737684"/>
</svg>
