<svg width="100" height="100" viewBox="0 0 100 100" fill="none" xmlns="http://www.w3.org/2000/svg">
<g>
<path d="M70.8333 41.6667H79.1667C83.769 41.6667 87.5 45.3976 87.5 50V79.1667C87.5 83.769 83.769 87.5 79.1667 87.5H70.8333V41.6667Z" fill="#101116"/>
<path d="M20.8333 12.5C16.231 12.5 12.5 16.231 12.5 20.8333V79.1667C12.5 83.769 16.231 87.5 20.8333 87.5H79.1667C74.5643 87.5 70.8333 83.769 70.8333 79.1667V20.8333C70.8333 16.231 67.1024 12.5 62.5 12.5H20.8333Z" fill="#0046FF"/>
</g>
<path d="M47.3958 55.2083L57.8125 65.625M38.7153 58.6806C32.0035 58.6806 26.5625 53.2396 26.5625 46.5278C26.5625 39.816 32.0035 34.375 38.7153 34.375C45.4271 34.375 50.8681 39.816 50.8681 46.5278C50.8681 53.2396 45.4271 58.6806 38.7153 58.6806Z" stroke="white" stroke-width="3.5" stroke-linecap="round" stroke-linejoin="round"/>
</svg>
