<svg preserveAspectRatio="none" width="100%" height="100%" overflow="visible" style="display: block;" viewBox="0 0 22 18" fill="none" xmlns="http://www.w3.org/2000/svg">
<g id="Group 1321316364">
<path id="Vector" d="M19.6558 0C20.5142 0 21.2101 0.695883 21.2101 1.5543V15.7582C21.2101 16.6166 20.5142 17.3125 19.6558 17.3125C18.7974 17.3125 18.1015 16.6166 18.1015 15.7582V1.5543C18.1015 0.695883 18.7974 0 19.6558 0Z" fill="#101116"/>
<path id="Vector_2" d="M3.68019 16.2489C3.46722 16.8843 2.87206 17.3125 2.20195 17.3125C1.12669 17.3125 0.374213 16.2497 0.731422 15.2355L5.46159 1.80551C5.84262 0.723687 6.86477 0 8.01174 0C9.15749 0 10.1788 0.722172 10.5608 1.80238L15.3106 15.2355C15.669 16.2491 14.9171 17.3125 13.842 17.3125C13.1725 17.3125 12.5778 16.8847 12.365 16.2498L12.0039 15.1723C11.5753 13.8938 10.3777 13.0322 9.0293 13.0322H7.0156C5.66719 13.0322 4.4696 13.8938 4.04106 15.1723L3.68019 16.2489ZM6.36634 8.22418C5.98739 9.35331 6.82749 10.5214 8.01851 10.5214C9.2118 10.5214 10.0521 9.34919 9.66897 8.2191L8.10523 3.60685C8.09148 3.5663 8.05343 3.53902 8.01061 3.53902C7.96769 3.53902 7.92956 3.56644 7.9159 3.60714L6.36634 8.22418Z" fill="#101116"/>
</g>
</svg>
