<svg preserveAspectRatio="none" width="100%" height="100%" overflow="visible" style="display: block;" viewBox="0 0 24 24" fill="none" xmlns="http://www.w3.org/2000/svg">
<g id="i_&#235;&#140;&#128;&#236;&#139;&#156;&#235;&#179;&#180;&#235;&#147;&#156;">
<path id="Vector" d="M2 20.3424H4M4 20.3424H10M4 20.3424V11.7945C4 11.2602 4 10.9929 4.06497 10.7442C4.12255 10.5239 4.21779 10.3154 4.3457 10.1269C4.49004 9.9143 4.69064 9.73798 5.09277 9.38611L9.89436 5.18472C10.6398 4.53243 11.0126 4.20626 11.4324 4.08211C11.8026 3.97263 12.1972 3.97263 12.5674 4.08211C12.9875 4.20635 13.3608 4.53283 14.1074 5.18611L18.9074 9.38611C19.3095 9.73797 19.5102 9.9143 19.6546 10.1269C19.7825 10.3154 19.877 10.5239 19.9346 10.7442C19.9995 10.9929 20 11.2602 20 11.7945V20.3424M10 20.3424H14M10 20.3424V16.3424C10 15.2378 10.8954 14.3424 12 14.3424C13.1046 14.3424 14 15.2378 14 16.3424V20.3424M14 20.3424H20M20 20.3424H22" stroke="var(--stroke-0, #0046FF)" stroke-width="2" stroke-linecap="round" stroke-linejoin="round"/>
</g>
</svg>
