<svg preserveAspectRatio="none" width="100%" height="100%" overflow="visible" style="display: block;" viewBox="0 0 40 40" fill="none" xmlns="http://www.w3.org/2000/svg">
<g id="Frame 1321318102" clip-path="url(#clip0_2004_1574)">
<g id="Group 1321316320">
<circle id="Ellipse 1742" cx="20" cy="20" r="20" fill="var(--fill-0, #F3F4F7)"/>
<g id="Filled">
<path id="Vector" d="M14.2636 31.25C12.9924 31.25 11.9619 30.2426 11.9619 29L11.9619 11C11.9619 9.75736 12.9924 8.75 14.2636 8.75L24.6212 8.75C27.1636 8.75 29.2246 10.7647 29.2246 13.25L29.2246 26.75C29.2246 29.2353 27.1636 31.25 24.6212 31.25L14.2636 31.25Z" fill="var(--fill-0, #00E163)"/>
<path id="Vector_2" d="M18.0769 12.512C18.0769 12.075 18.4313 11.7207 18.8685 11.7207H20.8475C21.2846 11.7207 21.6391 12.075 21.6391 12.512V14.4903C21.6391 14.9274 21.2846 15.2817 20.8475 15.2817H18.8685C18.4313 15.2817 18.0769 14.9274 18.0769 14.4903V12.512Z" fill="var(--fill-0, #101116)"/>
<path id="Vector_3" d="M13.8571 31.25C12.2792 31.25 11 30.2426 11 29L11 11C11 9.75736 12.2792 8.75 13.8571 8.75L16 8.75L16 31.25L13.8571 31.25Z" fill="var(--fill-0, #101116)"/>
</g>
<rect id="Rectangle 39591561" x="34.115" y="33.7012" width="3.52356" height="5.15181" rx="1.76178" transform="rotate(135.93 34.115 33.7012)" fill="var(--fill-0, #00E163)"/>
<circle id="Ellipse 1742_2" cx="20" cy="20" r="20" fill="var(--fill-0, white)"/>
</g>
<path id="Vector_4" d="M17 23L19 25L23 21M21 11.0009C20.9045 11 20.7973 11 20.6747 11H16.2002C15.0801 11 14.5196 11 14.0918 11.218C13.7155 11.4097 13.4097 11.7155 13.218 12.0918C13 12.5196 13 13.0801 13 14.2002V25.8002C13 26.9203 13 27.4801 13.218 27.9079C13.4097 28.2842 13.7155 28.5905 14.0918 28.7822C14.5192 29 15.079 29 16.1969 29L23.8031 29C24.921 29 25.48 29 25.9074 28.7822C26.2837 28.5905 26.5905 28.2842 26.7822 27.9079C27 27.4805 27 26.9215 27 25.8036V17.3257C27 17.203 27 17.0956 26.9991 17M21 11.0009C21.2856 11.0035 21.4663 11.0138 21.6388 11.0553C21.8429 11.1043 22.0379 11.1853 22.2168 11.2949C22.4186 11.4186 22.5918 11.5918 22.9375 11.9375L26.063 15.063C26.4089 15.4089 26.5809 15.5814 26.7046 15.7832C26.8142 15.9621 26.8953 16.1573 26.9443 16.3613C26.9857 16.5338 26.9963 16.7145 26.9991 17M21 11.0009V13.8C21 14.9201 21 15.4798 21.218 15.9076C21.4097 16.2839 21.7155 16.5905 22.0918 16.7822C22.5192 17 23.079 17 24.1969 17H26.9991M26.9991 17H27.0002" stroke="var(--stroke-0, #101116)" stroke-width="2" stroke-linecap="round" stroke-linejoin="round"/>
</g>
<defs>
<clipPath id="clip0_2004_1574">
<rect width="40" height="40" fill="white"/>
</clipPath>
</defs>
</svg>
