<svg width="24" height="24" viewBox="0 0 24 24" fill="none" xmlns="http://www.w3.org/2000/svg">
<path d="M4.34706 4L20.3471 20M16.8471 16.7559C15.4945 17.4845 13.9657 17.9999 12.3471 17.9999C8.81641 17.9999 5.71341 15.5478 3.93397 13.7788C3.46427 13.3119 3.22945 13.0784 3.07997 12.6201C2.97336 12.2933 2.97333 11.7066 3.07997 11.3797C3.2295 10.9215 3.4648 10.6875 3.93544 10.2197C4.83232 9.32821 6.06518 8.26359 7.51936 7.42676M19.8471 14.6335C20.1801 14.3405 20.4851 14.0523 20.7589 13.7803L20.7617 13.7772C21.2304 13.3114 21.4654 13.0779 21.6146 12.6206C21.7212 12.2938 21.721 11.7068 21.6144 11.38C21.4649 10.9219 21.2298 10.6877 20.7604 10.2211C18.981 8.45208 15.8777 6 12.3471 6C12.0096 6 11.676 6.02241 11.3471 6.06448M13.67 13.5C13.3174 13.8112 12.8543 14 12.3471 14C11.2425 14 10.3471 13.1046 10.3471 12C10.3471 11.4605 10.5607 10.9711 10.9079 10.6113" stroke="#737684" stroke-width="1.5" stroke-linecap="round" stroke-linejoin="round"/>
</svg>
