<svg preserveAspectRatio="none" width="100%" height="100%" overflow="visible" style="display: block;" viewBox="0 0 30 30" fill="none" xmlns="http://www.w3.org/2000/svg">
<g id="Frame 1321318102" clip-path="url(#clip0_2001_1747)">
<g id="Group 1321316320">
<circle id="Ellipse 1742" cx="14.6222" cy="14.6224" r="14.6224" fill="var(--fill-0, #F3F4F7)"/>
<g id="Filled">
<path id="Vector" d="M10.4282 22.8475C9.49881 22.8475 8.74539 22.111 8.74539 21.2025L8.74539 8.04238C8.74539 7.13386 9.49881 6.39736 10.4282 6.39736L18.0008 6.39736C19.8596 6.39736 21.3665 7.87036 21.3665 9.68739L21.3665 19.5575C21.3665 21.3745 19.8596 22.8475 18.0008 22.8475L10.4282 22.8475Z" fill="var(--fill-0, #00E163)"/>
<path id="Vector_2" d="M13.2165 9.14789C13.2165 8.82837 13.4756 8.56934 13.7952 8.56934H15.2421C15.5617 8.56934 15.8208 8.82837 15.8208 9.14789V10.5943C15.8208 10.9138 15.5617 11.1728 15.2421 11.1728H13.7952C13.4756 11.1728 13.2165 10.9138 13.2165 10.5943V9.14789Z" fill="var(--fill-0, #101116)"/>
<path id="Vector_3" d="M10.131 22.8475C8.97734 22.8475 8.0421 22.111 8.0421 21.2024L8.0421 8.04232C8.0421 7.1338 8.97734 6.3973 10.131 6.3973L11.6977 6.3973L11.6977 22.8475L10.131 22.8475Z" fill="var(--fill-0, #101116)"/>
</g>
<rect id="Rectangle 39591561" x="24.9418" y="24.6395" width="2.57614" height="3.76658" rx="1.28807" transform="rotate(135.93 24.9418 24.6395)" fill="var(--fill-0, #00E163)"/>
<circle id="Ellipse 1742_2" cx="14.6222" cy="14.6224" r="14.6224" fill="var(--fill-0, white)"/>
</g>
<path id="Vector_4" d="M7.31076 11.9416H21.6082M7.31076 11.9416V19.8053C7.31076 20.8062 7.31076 21.3064 7.50555 21.6887C7.67689 22.025 7.9501 22.2987 8.28637 22.47C8.6683 22.6646 9.16852 22.6646 10.1675 22.6646H18.7515C19.7504 22.6646 20.2499 22.6646 20.6318 22.47C20.9681 22.2987 21.2422 22.025 21.4136 21.6887C21.6082 21.3068 21.6082 20.8073 21.6082 19.8083V11.9416M7.31076 11.9416V11.2269C7.31076 10.2259 7.31076 9.72512 7.50555 9.34282C7.67689 9.00654 7.9501 8.73334 8.28637 8.56199C8.66867 8.3672 9.1695 8.3672 10.1704 8.3672H10.8851M21.6082 11.9416V11.2239C21.6082 10.225 21.6082 9.72474 21.4136 9.34282C21.2422 9.00654 20.9681 8.73334 20.6318 8.56199C20.2495 8.3672 19.7498 8.3672 18.7489 8.3672H18.0338M10.8851 8.3672H18.0338M10.8851 8.3672V6.58003M18.0338 8.3672V6.58003M17.1402 15.5159L13.5659 19.0903L11.7787 17.3031" stroke="var(--stroke-0, #101116)" stroke-width="1.46224" stroke-linecap="round" stroke-linejoin="round"/>
</g>
<defs>
<clipPath id="clip0_2001_1747">
<rect width="29.2447" height="29.2447" fill="white"/>
</clipPath>
</defs>
</svg>
