<svg preserveAspectRatio="none" width="100%" height="100%" overflow="visible" style="display: block;" viewBox="0 0 30 30" fill="none" xmlns="http://www.w3.org/2000/svg">
<g id="Frame 1321318102" clip-path="url(#clip0_2001_1770)">
<g id="Group 1321316320">
<circle id="Ellipse 1742" cx="14.6224" cy="14.6224" r="14.6224" fill="var(--fill-0, #F3F4F7)"/>
<g id="Filled">
<path id="Vector" d="M10.4288 22.8475C9.49937 22.8475 8.74595 22.111 8.74595 21.2025L8.74595 8.04239C8.74595 7.13387 9.49937 6.39737 10.4288 6.39737L18.0014 6.39737C19.8602 6.39737 21.367 7.87037 21.367 9.68741L21.367 19.5575C21.367 21.3745 19.8602 22.8475 18.0014 22.8475L10.4288 22.8475Z" fill="var(--fill-0, #00E163)"/>
<path id="Vector_2" d="M13.2165 9.14791C13.2165 8.82838 13.4757 8.56936 13.7953 8.56936H15.2421C15.5618 8.56936 15.8209 8.82838 15.8209 9.14791V10.5943C15.8209 10.9138 15.5618 11.1728 15.2421 11.1728H13.7953C13.4757 11.1728 13.2165 10.9138 13.2165 10.5943V9.14791Z" fill="var(--fill-0, #101116)"/>
<path id="Vector_3" d="M10.1311 22.8475C8.97739 22.8475 8.04216 22.111 8.04216 21.2025L8.04216 8.04233C8.04216 7.13382 8.97739 6.39732 10.1311 6.39732L11.6977 6.39732L11.6977 22.8475L10.1311 22.8475Z" fill="var(--fill-0, #101116)"/>
</g>
<rect id="Rectangle 39591561" x="24.9424" y="24.6395" width="2.57614" height="3.76658" rx="1.28807" transform="rotate(135.93 24.9424 24.6395)" fill="var(--fill-0, #00E163)"/>
<circle id="Ellipse 1742_2" cx="14.6224" cy="14.6224" r="14.6224" fill="var(--fill-0, white)"/>
</g>
<path id="Vector_4" d="M14.6787 11.1179V14.7481M7.76218 16.7445C6.93682 18.1741 6.52426 18.8891 6.5859 19.4757C6.63967 19.9873 6.90818 20.4521 7.32435 20.7544C7.80132 21.101 8.62617 21.101 10.2758 21.101H19.0817C20.7313 21.101 21.556 21.101 22.033 20.7544C22.4492 20.4521 22.7178 19.9873 22.7716 19.4757C22.8332 18.8891 22.4208 18.1741 21.5954 16.7445L17.194 9.12106C16.3687 7.69149 15.9558 6.97683 15.417 6.73695C14.9471 6.52772 14.4101 6.52772 13.9402 6.73695C13.4016 6.97673 12.989 7.6914 12.1643 9.11977L7.76218 16.7445ZM14.7248 17.4707V17.5615L14.6335 17.5617V17.4707H14.7248Z" stroke="var(--stroke-0, #101116)" stroke-width="1.46227" stroke-linecap="round" stroke-linejoin="round"/>
</g>
<defs>
<clipPath id="clip0_2001_1770">
<rect width="29.2447" height="29.2447" fill="white"/>
</clipPath>
</defs>
</svg>
