<svg preserveAspectRatio="none" width="100%" height="100%" overflow="visible" style="display: block;" viewBox="0 0 30 30" fill="none" xmlns="http://www.w3.org/2000/svg">
<g id="Frame 1321318102" clip-path="url(#clip0_2001_1716)">
<g id="Group 1321316320">
<circle id="Ellipse 1742" cx="14.6224" cy="14.6224" r="14.6224" fill="var(--fill-0, #F3F4F7)"/>
<g id="Filled">
<path id="Vector" d="M10.4282 22.8475C9.49882 22.8475 8.7454 22.111 8.7454 21.2025L8.7454 8.04239C8.7454 7.13387 9.49882 6.39737 10.4282 6.39737L18.0009 6.39737C19.8596 6.39737 21.3665 7.87037 21.3665 9.68741L21.3665 19.5575C21.3665 21.3745 19.8596 22.8475 18.0009 22.8475L10.4282 22.8475Z" fill="var(--fill-0, #00E163)"/>
<path id="Vector_2" d="M13.2165 9.14791C13.2165 8.82838 13.4756 8.56936 13.7952 8.56936H15.2421C15.5617 8.56936 15.8208 8.82838 15.8208 9.14791V10.5943C15.8208 10.9138 15.5617 11.1728 15.2421 11.1728H13.7952C13.4756 11.1728 13.2165 10.9138 13.2165 10.5943V9.14791Z" fill="var(--fill-0, #101116)"/>
<path id="Vector_3" d="M10.131 22.8475C8.97736 22.8475 8.04213 22.111 8.04213 21.2025L8.04213 8.04233C8.04213 7.13382 8.97736 6.39732 10.131 6.39732L11.6977 6.39732L11.6977 22.8475L10.131 22.8475Z" fill="var(--fill-0, #101116)"/>
</g>
<rect id="Rectangle 39591561" x="24.9419" y="24.6395" width="2.57614" height="3.76658" rx="1.28807" transform="rotate(135.93 24.9419 24.6395)" fill="var(--fill-0, #00E163)"/>
<circle id="Ellipse 1742_2" cx="14.6224" cy="14.6224" r="14.6224" fill="var(--fill-0, white)"/>
</g>
<path id="Vector_4" d="M9.92381 14.8928L13.9988 18.9677L22.7316 10.2357M5.84846 14.9342L9.92345 19.0091M18.6555 10.2771L14.2894 14.6432" stroke="var(--stroke-0, #101116)" stroke-width="1.64654" stroke-linecap="round" stroke-linejoin="round"/>
</g>
<defs>
<clipPath id="clip0_2001_1716">
<rect width="29.2447" height="29.2447" fill="white"/>
</clipPath>
</defs>
</svg>
