<svg preserveAspectRatio="none" width="100%" height="100%" overflow="visible" style="display: block;" viewBox="0 0 30 30" fill="none" xmlns="http://www.w3.org/2000/svg">
<g id="Frame 1321318102" clip-path="url(#clip0_2001_1679)">
<g id="Group 1321316320">
<circle id="Ellipse 1742" cx="14.6224" cy="14.6224" r="14.6224" fill="var(--fill-0, #F3F4F7)"/>
<g id="Filled">
<path id="Vector" d="M10.4285 22.8475C9.49915 22.8475 8.74573 22.111 8.74573 21.2025L8.74573 8.04239C8.74573 7.13387 9.49915 6.39737 10.4285 6.39737L18.0012 6.39737C19.86 6.39737 21.3668 7.87037 21.3668 9.68741L21.3668 19.5575C21.3668 21.3745 19.86 22.8475 18.0012 22.8475L10.4285 22.8475Z" fill="var(--fill-0, #00E163)"/>
<path id="Vector_2" d="M13.2168 9.14791C13.2168 8.82838 13.4759 8.56936 13.7956 8.56936H15.2424C15.5621 8.56936 15.8212 8.82838 15.8212 9.14791V10.5943C15.8212 10.9138 15.5621 11.1728 15.2424 11.1728H13.7956C13.4759 11.1728 13.2168 10.9138 13.2168 10.5943V9.14791Z" fill="var(--fill-0, #101116)"/>
<path id="Vector_3" d="M10.1314 22.8475C8.97777 22.8475 8.04254 22.111 8.04254 21.2025L8.04254 8.04233C8.04254 7.13382 8.97777 6.39732 10.1314 6.39732L11.6981 6.39732L11.6981 22.8475L10.1314 22.8475Z" fill="var(--fill-0, #101116)"/>
</g>
<rect id="Rectangle 39591561" x="24.9423" y="24.6395" width="2.57614" height="3.76658" rx="1.28807" transform="rotate(135.93 24.9423 24.6395)" fill="var(--fill-0, #00E163)"/>
<circle id="Ellipse 1742_2" cx="14.6224" cy="14.6224" r="14.6224" fill="var(--fill-0, white)"/>
</g>
<path id="Vector_4" d="M14.6226 10.1544V14.6223H19.0905M14.6226 22.6646C10.1809 22.6646 6.58026 19.064 6.58026 14.6223C6.58026 10.1807 10.1809 6.58003 14.6226 6.58003C19.0642 6.58003 22.6648 10.1807 22.6648 14.6223C22.6648 19.064 19.0642 22.6646 14.6226 22.6646Z" stroke="var(--stroke-0, #101116)" stroke-width="1.46224" stroke-linecap="round" stroke-linejoin="round"/>
</g>
<defs>
<clipPath id="clip0_2001_1679">
<rect width="29.2447" height="29.2447" fill="white"/>
</clipPath>
</defs>
</svg>
