<svg preserveAspectRatio="none" width="100%" height="100%" overflow="visible" style="display: block;" viewBox="0 0 40 40" fill="none" xmlns="http://www.w3.org/2000/svg">
<g id="Frame 1321318102" clip-path="url(#clip0_2002_1429)">
<g id="Group 1321316320">
<circle id="Ellipse 1742" cx="20" cy="20" r="20" fill="var(--fill-0, #F3F4F7)"/>
<g id="Filled">
<path id="Vector" d="M14.2636 31.25C12.9924 31.25 11.9619 30.2426 11.9619 29L11.9619 11C11.9619 9.75736 12.9924 8.75 14.2636 8.75L24.6212 8.75C27.1636 8.75 29.2246 10.7647 29.2246 13.25L29.2246 26.75C29.2246 29.2353 27.1636 31.25 24.6212 31.25L14.2636 31.25Z" fill="var(--fill-0, #00E163)"/>
<path id="Vector_2" d="M18.0769 12.512C18.0769 12.075 18.4313 11.7207 18.8684 11.7207H20.8474C21.2846 11.7207 21.639 12.075 21.639 12.512V14.4903C21.639 14.9274 21.2846 15.2817 20.8474 15.2817H18.8684C18.4313 15.2817 18.0769 14.9274 18.0769 14.4903V12.512Z" fill="var(--fill-0, #101116)"/>
<path id="Vector_3" d="M13.8571 31.25C12.2792 31.25 11 30.2426 11 29L11 11C11 9.75736 12.2792 8.75 13.8571 8.75L16 8.75L16 31.25L13.8571 31.25Z" fill="var(--fill-0, #101116)"/>
</g>
<rect id="Rectangle 39591561" x="34.1149" y="33.7012" width="3.52356" height="5.15181" rx="1.76178" transform="rotate(135.93 34.1149 33.7012)" fill="var(--fill-0, #00E163)"/>
<circle id="Ellipse 1742_2" cx="20" cy="20" r="20" fill="var(--fill-0, white)"/>
</g>
<path id="Vector_4" d="M17 20H23M19.9996 29C18.3645 29 16.8313 28.5639 15.5098 27.8018L15.5056 27.7994C15.3778 27.7257 15.3137 27.6887 15.2529 27.6719C15.1958 27.6561 15.1448 27.6507 15.0856 27.6548C15.0221 27.6591 14.9554 27.6813 14.824 27.7251L12.5176 28.4939L12.5115 28.4962C12.027 28.6577 11.7848 28.7384 11.623 28.6807C11.4817 28.6303 11.3698 28.5187 11.3194 28.3774C11.2616 28.2152 11.3427 27.9719 11.5049 27.4853L11.5059 27.4823L12.2747 25.1758C12.3186 25.044 12.34 24.9781 12.3444 24.9146C12.3484 24.8554 12.344 24.804 12.3282 24.7469C12.3115 24.6863 12.2745 24.6221 12.2011 24.495L12.1982 24.4899C11.436 23.1684 11 21.6351 11 20C11 15.0294 15.0294 11 20 11C24.9706 11 29 15.0294 29 20C29 24.9706 24.9702 29 19.9996 29Z" stroke="var(--stroke-0, #101116)" stroke-width="2" stroke-linecap="round" stroke-linejoin="round"/>
</g>
<defs>
<clipPath id="clip0_2002_1429">
<rect width="40" height="40" fill="white"/>
</clipPath>
</defs>
</svg>
