<svg preserveAspectRatio="none" width="100%" height="100%" overflow="visible" style="display: block;" viewBox="0 0 40 40" fill="none" xmlns="http://www.w3.org/2000/svg">
<g id="Frame 1321318103" clip-path="url(#clip0_2002_1416)">
<g id="Group 1321316320">
<circle id="Ellipse 1742" cx="20" cy="20" r="20" fill="var(--fill-0, #F3F4F7)"/>
<g id="Filled">
<path id="Vector" d="M14.2636 31.25C12.9924 31.25 11.9619 30.2426 11.9619 29L11.9619 11C11.9619 9.75736 12.9924 8.75 14.2636 8.75L24.6212 8.75C27.1636 8.75 29.2246 10.7647 29.2246 13.25L29.2246 26.75C29.2246 29.2353 27.1636 31.25 24.6212 31.25L14.2636 31.25Z" fill="var(--fill-0, #00E163)"/>
<path id="Vector_2" d="M18.0769 12.512C18.0769 12.075 18.4313 11.7207 18.8684 11.7207H20.8474C21.2846 11.7207 21.639 12.075 21.639 12.512V14.4903C21.639 14.9274 21.2846 15.2817 20.8474 15.2817H18.8684C18.4313 15.2817 18.0769 14.9274 18.0769 14.4903V12.512Z" fill="var(--fill-0, #101116)"/>
<path id="Vector_3" d="M13.8571 31.25C12.2792 31.25 11 30.2426 11 29L11 11C11 9.75736 12.2792 8.75 13.8571 8.75L16 8.75L16 31.25L13.8571 31.25Z" fill="var(--fill-0, #101116)"/>
</g>
<rect id="Rectangle 39591561" x="34.1149" y="33.7012" width="3.52356" height="5.15181" rx="1.76178" transform="rotate(135.93 34.1149 33.7012)" fill="var(--fill-0, #00E163)"/>
<circle id="Ellipse 1742_2" cx="20" cy="20" r="20" fill="var(--fill-0, white)"/>
</g>
<path id="Vector_4" d="M20 16.4502V20.4502M20 29C15.0294 29 11 24.9706 11 20C11 15.0294 15.0294 11 20 11C24.9706 11 29 15.0294 29 20C29 24.9706 24.9706 29 20 29ZM20.0498 23.4502V23.5502L19.9502 23.5498V23.4502H20.0498Z" stroke="var(--stroke-0, #101116)" stroke-width="2" stroke-linecap="round" stroke-linejoin="round"/>
</g>
<defs>
<clipPath id="clip0_2002_1416">
<rect width="40" height="40" fill="white"/>
</clipPath>
</defs>
</svg>
