<svg preserveAspectRatio="none" width="100%" height="100%" overflow="visible" style="display: block;" viewBox="0 0 40 40" fill="none" xmlns="http://www.w3.org/2000/svg">
<g id="Frame 1321318102" clip-path="url(#clip0_2002_1405)">
<g id="Group 1321316320">
<circle id="Ellipse 1742" cx="20" cy="20" r="20" fill="var(--fill-0, #F3F4F7)"/>
<g id="Filled">
<path id="Vector" d="M14.2636 31.25C12.9924 31.25 11.9619 30.2426 11.9619 29L11.9619 11C11.9619 9.75736 12.9924 8.75 14.2636 8.75L24.6212 8.75C27.1636 8.75 29.2246 10.7647 29.2246 13.25L29.2246 26.75C29.2246 29.2353 27.1636 31.25 24.6212 31.25L14.2636 31.25Z" fill="var(--fill-0, #00E163)"/>
<path id="Vector_2" d="M18.0769 12.512C18.0769 12.075 18.4313 11.7207 18.8684 11.7207H20.8474C21.2846 11.7207 21.639 12.075 21.639 12.512V14.4903C21.639 14.9274 21.2846 15.2817 20.8474 15.2817H18.8684C18.4313 15.2817 18.0769 14.9274 18.0769 14.4903V12.512Z" fill="var(--fill-0, #101116)"/>
<path id="Vector_3" d="M13.8571 31.25C12.2792 31.25 11 30.2426 11 29L11 11C11 9.75736 12.2792 8.75 13.8571 8.75L16 8.75L16 31.25L13.8571 31.25Z" fill="var(--fill-0, #101116)"/>
</g>
<rect id="Rectangle 39591561" x="34.1149" y="33.7012" width="3.52356" height="5.15181" rx="1.76178" transform="rotate(135.93 34.1149 33.7012)" fill="var(--fill-0, #00E163)"/>
<circle id="Ellipse 1742_2" cx="20" cy="20" r="20" fill="var(--fill-0, white)"/>
</g>
<path id="Vector_4" d="M17.1465 17.0736C17.3173 16.5473 17.6302 16.079 18.0508 15.7195C18.4714 15.36 18.9838 15.1238 19.5303 15.0371C20.0768 14.9504 20.6362 15.0164 21.1475 15.228C21.6587 15.4397 22.1014 15.7887 22.4268 16.2363C22.7521 16.6839 22.9469 17.2126 22.9904 17.7642C23.0339 18.3158 22.9238 18.8688 22.6727 19.3618C22.4215 19.8548 22.0394 20.2685 21.5676 20.5576C21.0958 20.8467 20.5533 20.9998 20 20.9998V22.0002M20 29C15.0294 29 11 24.9706 11 20C11 15.0294 15.0294 11 20 11C24.9706 11 29 15.0294 29 20C29 24.9706 24.9706 29 20 29ZM20.0498 25V25.1L19.9502 25.1002V25H20.0498Z" stroke="var(--stroke-0, #101116)" stroke-width="2" stroke-linecap="round" stroke-linejoin="round"/>
</g>
<defs>
<clipPath id="clip0_2002_1405">
<rect width="40" height="40" fill="white"/>
</clipPath>
</defs>
</svg>
