<svg preserveAspectRatio="none" width="100%" height="100%" overflow="visible" style="display: block;" viewBox="0 0 27 22" fill="none" xmlns="http://www.w3.org/2000/svg">
<g id="Group 1321316363">
<g id="Filled">
<path id="Vector" d="M2.66667 0C1.19391 0 0 1.19391 0 2.66667V14.6667C0 17.6122 2.38781 20 5.33333 20H14.6339C15.0447 20 15.307 19.5507 15.1526 19.17C14.8393 18.3971 14.6667 17.552 14.6667 16.6667C14.6667 12.9848 17.6514 10 21.3333 10C22.9397 10 24.4134 10.5682 25.5644 11.5145C25.9602 11.8399 26.6667 11.5806 26.6667 11.0683V2.66667C26.6667 1.19391 25.4728 0 24 0H2.66667Z" fill="var(--fill-0, #0046FF)"/>
<circle id="Vector_2" cx="21.3334" cy="16.6667" r="5.33333" fill="var(--fill-0, #C1E0FC)"/>
<path id="Vector_3" d="M3.06775 4.4C3.06775 3.8109 3.54531 3.33333 4.13442 3.33333H22.6677C23.2569 3.33333 23.7344 3.8109 23.7344 4.4C23.7344 4.9891 23.2569 5.46667 22.6677 5.46667H4.13442C3.54531 5.46667 3.06775 4.9891 3.06775 4.4Z" fill="var(--fill-0, #101116)"/>
</g>
<path id="Vector_4" d="M21.5 20L21.5 13M21.5 13L18.5 15.8M21.5 13L24.5 15.8" stroke="var(--stroke-0, #101116)" stroke-linecap="round" stroke-linejoin="round"/>
</g>
</svg>
